Coordinates
version=1
nRows=8
nColumns=36
inDegrees=yes

Units are S.I. units (second, meters, Newtons, ...)
If the header above contains a line with 'inDegrees', this indicates whether rotational values are in degrees (yes) or radians (no).

endheader
time	pelvis_tilt	pelvis_list	pelvis_rotation	pelvis_tx	pelvis_ty	pelvis_tz	hip_flexion_r	hip_adduction_r	hip_rotation_r	knee_angle_r	knee_angle_r_beta	ankle_angle_r	subtalar_angle_r	mtp_angle_r	hip_flexion_l	hip_adduction_l	hip_rotation_l	knee_angle_l	knee_angle_l_beta	ankle_angle_l	subtalar_angle_l	mtp_angle_l	lumbar_extension	lumbar_bending	lumbar_rotation	arm_flex_r	arm_add_r	arm_rot_r	elbow_flex_r	pro_sup_r	arm_flex_l	arm_add_l	arm_rot_l	elbow_flex_l	pro_sup_l
      0.34000000	     -0.42638026	     -2.00360938	     11.20361891	      0.16628561	      1.04432684	     -0.20722992	      5.32508280	      8.08727068	     -4.22397034	      2.32234233	      0.04053252	     -1.80418286	     -0.78624842	     -6.08022805	     21.35223528	     -2.74813722	      7.31966481	     62.64802003	      1.09341422	      3.24024102	     -6.85691339	     -6.08022805	    -11.06030215	     -0.69521161	     -1.40518054	    -14.99479130	     -6.64304694	    -19.68326748	     51.64549937	    109.19261795	    -13.42579469	     -7.83247487	    -17.48983347	     55.05146804	    100.54979986
      0.35000000	     -0.51371857	     -1.80180797	     10.85067241	      0.17914591	      1.04522672	     -0.20688830	      4.41064797	      8.06058580	     -3.88348721	      2.06527568	      0.03604586	     -1.22623979	     -0.54658380	     -6.09857167	     22.55643528	     -2.08908868	      7.41330737	     61.27907449	      1.06952161	      4.35358593	     -7.87309642	     -6.09857167	    -11.04345389	     -0.98697347	     -1.03054127	    -14.13196198	     -6.95415002	    -19.77935969	     52.63662270	    109.10970417	    -14.18953782	     -7.46313738	    -17.57430806	     53.47270566	    100.38760386
      0.36000000	     -0.63479091	     -1.60956749	     10.45006580	      0.19192487	      1.04591269	     -0.20651493	      3.53928267	      8.02673781	     -3.63574950	      1.79525066	      0.03133303	     -0.70227390	     -0.21351637	     -6.11168638	     23.68240024	     -1.50925593	      7.40126882	     59.55339266	      1.03940278	      5.26722131	     -8.76945243	     -6.11168638	    -10.99598356	     -1.28205510	     -0.62880073	    -13.26104292	     -7.29985074	    -19.84293728	     53.66532314	    109.04234408	    -14.94526274	     -7.07371264	    -17.68009186	     51.95025108	    100.22526249
      0.37000000	     -0.53901922	     -1.32780750	     10.00109904	      0.20481661	      1.04679876	     -0.20635033	      2.46518669	      7.88607735	     -3.80497665	      1.65251425	      0.02884181	      0.33033211	      0.95357856	     -6.18860597	     24.35542611	     -0.85763508	      7.37102075	     57.34227888	      1.00081157	      5.23193770	    -10.56289797	     -6.18860597	    -11.21180481	     -1.57459662	      0.25028593	    -12.73390498	     -7.61987184	    -20.25573190	     54.95003079	    108.88190703	    -15.20562898	     -6.76423037	    -17.44699000	     49.77534085	    100.40015553
      0.38000000	     -0.72047514	     -1.14483203	      9.48209833	      0.21751859	      1.04697626	     -0.20588143	      1.70216671	      7.82602250	     -3.50183999	      1.44980798	      0.02530392	      0.82818982	      1.30337736	     -6.20318728	     25.30640722	     -0.39695018	      7.23526777	     54.99324137	      0.95981313	      5.78729358	    -11.14730745	     -6.20318728	    -11.09835109	     -1.87077169	      0.72249385	    -11.85484443	     -8.01444358	    -20.21396309	     55.97702932	    108.80720740	    -16.00280326	     -6.36311440	    -17.63995296	     48.33250064	    100.25045722
      0.39000000	     -0.82119257	     -0.94711068	      8.90531089	      0.23024124	      1.04710801	     -0.20542949	      0.88546182	      7.74327160	     -3.16780745	      1.32647707	      0.02315139	      1.46579398	      1.75224729	     -6.21767078	     26.00724831	     -0.01873634	      6.96277962	     52.25366550	      0.91199851	      5.86761042	    -11.85424696	     -6.21767078	    -11.08035580	     -2.15782176	      1.34102116	    -11.04998719	     -8.43858267	    -20.10892312	     57.00106823	    108.72954287	    -16.64666208	     -5.90037666	    -17.84834801	     46.73889393	    100.09852002
      0.40000000	     -0.62110721	     -0.68941321	      8.23578477	      0.24311953	      1.04750569	     -0.20495625	     -0.24832448	      7.61623947	     -3.06691559	      1.24227528	      0.02168179	      2.44627657	      2.62723757	     -6.25321674	     26.17108400	      0.35388234	      6.65065727	     49.09577159	      0.85688286	      4.71069255	    -13.66195661	     -6.25321674	    -11.40580822	     -2.46132568	      2.28777712	    -10.38543569	     -8.93871328	    -20.02041147	     58.01413698	    108.60723899	    -16.93894135	     -5.57693633	    -17.93864237	     44.71541498	    100.13318122
      0.41000000	     -0.69482723	     -0.50548002	      7.54761229	      0.25590304	      1.04723191	     -0.20439719	     -1.05073938	      7.51652397	     -2.59579772	      1.19956148	      0.02093630	      3.20872859	      3.01129276	     -6.27620713	     26.60415161	      0.57021546	      6.13952585	     45.82553854	      0.79980653	      4.14681289	    -14.34981522	     -6.27620713	    -11.39480125	     -2.74238191	      3.06224434	     -9.62857243	     -9.40406507	    -19.87026704	     58.98695026	    108.50961800	    -17.55364135	     -5.19467328	    -18.04721900	     43.24318474	    100.12581988
